<?xml version="1.0" encoding="UTF-8" standalone="no"?>
        <svg 
    viewBox="21.595982142857146 -93.45703125 448.99553571428567 53.61328125"
    width="427.3995535714285"
    height="147.0703125"
   xmlns="http://www.w3.org/2000/svg"
   xmlns:svg="http://www.w3.org/2000/svg">
   <path d="M88.48-68.55L88.48-68.55Q96.68-62.70 94.92-62.11L94.92-62.11Q92.58-58.59 93.16-52.73L93.16-52.73Q94.34-52.73 100.20-54.49L100.20-54.49Q108.98-56.25 111.33-57.42L111.33-57.42Q113.67-59.77 116.02-59.77L116.02-59.77Q123.63-58.01 127.73-55.66L127.73-55.66Q127.73-54.49 127.15-53.32L127.15-53.32Q126.56-52.73 125.39-53.91L125.39-53.91Q120.70-55.08 113.67-53.91L113.67-53.91Q107.23-53.32 93.16-49.80L93.16-49.80Q93.16-46.29 93.16-40.43L93.16-40.43Q104.30-21.09 115.43-9.38L115.43-9.38Q117.77-5.27 123.63-5.27L123.63-5.27Q135.94-3.52 144.14 0L144.14 0Q144.73 0 144.14 0L144.14 0Q142.38 0 139.45 0L139.45 0Q129.49-0.59 123.63-0.59L123.63-0.59Q118.36-0.59 114.26-7.03L114.26-7.03Q101.95-20.51 93.16-35.16L93.16-35.16Q91.99-11.13 93.75 3.52L93.75 3.52Q94.34 8.79 96.68 14.06L96.68 14.06Q96.68 16.41 93.16 16.41L93.16 16.41Q90.82 15.23 90.23 12.30L90.23 12.30Q89.06 8.20 86.13 4.10L86.13 4.10Q83.20 0.59 80.86-3.52L80.86-3.52Q79.69-6.45 82.03-4.10L82.03-4.10Q82.62-2.34 85.55 0L85.55 0Q88.48 2.34 89.65 4.10L89.65 4.10Q89.65 4.69 90.23 4.10L90.23 4.10Q90.82 4.10 91.41 2.93L91.41 2.93Q90.82-1.17 90.82-8.20L90.82-8.20Q90.23-19.34 90.82-35.16L90.82-35.16Q78.52-10.55 62.70-1.17L62.70-1.17Q59.77 0 62.11-2.34L62.11-2.34Q78.52-13.48 89.65-39.84L89.65-39.84Q88.48-41.02 86.72-43.95L86.72-43.95Q85.55-45.70 85.55-46.88L85.55-46.88Q84.38-46.29 79.69-44.53L79.69-44.53Q73.24-41.60 67.38-43.36L67.38-43.36Q65.63-43.95 67.97-44.53L67.97-44.53Q73.83-45.70 84.96-49.80L84.96-49.80Q87.89-50.98 89.65-51.56L89.65-51.56Q89.65-64.45 87.89-67.38L87.89-67.38Q86.13-69.73 88.48-68.55ZM85.55-122.46L85.55-122.46Q83.79-124.22 86.72-123.05L86.72-123.05Q98.44-114.84 95.51-111.91L95.51-111.91Q92.58-107.23 89.06-100.78L89.06-100.78Q107.81-103.71 110.74-106.05L110.74-106.05Q110.74-106.05 110.74-106.64L110.74-106.64Q111.33-108.98 114.26-108.40L114.26-108.40Q117.19-107.23 121.88-105.47L121.88-105.47Q123.63-104.30 126.56-103.71L126.56-103.71Q127.73-102.54 127.15-100.78L127.15-100.78Q127.15-99.61 125.39-100.78L125.39-100.78Q114.26-102.54 87.30-97.27L87.30-97.27Q79.69-86.13 70.31-82.62L70.31-82.62Q67.38-80.86 69.73-83.20L69.73-83.20Q77.93-88.48 82.03-96.68L82.03-96.68Q76.17-95.51 65.04-94.34L65.04-94.34Q58.59-93.16 56.84-93.16L56.84-93.16Q57.42-90.23 58.59-87.30L58.59-87.30Q59.18-82.62 56.84-83.20L56.84-83.20Q52.15-83.20 49.22-91.41L49.22-91.41Q41.02-88.48 28.13-92.58L28.13-92.58Q25.20-93.16 28.71-93.75L28.71-93.75Q37.50-92.58 48.05-95.51L48.05-95.51Q46.29-101.95 43.36-107.23L43.36-107.23Q43.36-108.40 43.36-108.98L43.36-108.98Q42.19-110.16 42.77-110.74L42.77-110.74Q43.36-111.33 44.53-110.74L44.53-110.74Q45.12-109.57 45.70-108.98L45.70-108.98Q53.32-100.78 55.08-96.68L55.08-96.68Q73.83-97.85 83.20-100.20L83.20-100.20Q87.89-107.81 89.65-114.84L89.65-114.84Q90.82-117.19 85.55-122.46ZM39.84-24.02L39.84-24.02L44.53-26.95Q45.12-28.13 45.12-36.91L45.12-36.91Q38.67-34.57 36.33-35.16L36.33-35.16Q33.40-34.57 35.74-35.74L35.74-35.74Q40.43-37.50 45.12-39.26L45.12-39.26Q44.53-40.43 44.53-42.19L44.53-42.19Q43.95-47.46 43.36-49.22L43.36-49.22Q39.26-47.46 35.16-48.05L35.16-48.05Q32.81-48.63 35.16-49.22L35.16-49.22Q41.02-50.98 44.53-52.15L44.53-52.15Q50.39-54.49 57.42-56.84L57.42-56.84Q60.35-57.42 63.87-55.08L63.87-55.08Q65.63-52.73 67.97-50.39L67.97-50.39Q69.73-49.22 70.31-49.22L70.31-49.22Q70.90-46.88 69.73-46.29L69.73-46.29Q66.21-45.12 65.63-41.02L65.63-41.02Q63.28-29.88 59.77-24.02L59.77-24.02Q57.42-17.58 49.22-22.27L49.22-22.27Q47.46-22.85 48.05-23.44L48.05-23.44Q48.05-23.44 49.80-24.02L49.80-24.02Q55.08-21.68 58.01-26.37L58.01-26.37Q63.28-37.50 62.11-48.63L62.11-48.63Q60.94-54.49 58.59-53.91L58.59-53.91Q50.98-52.73 45.12-50.39L45.12-50.39Q49.80-45.12 48.63-45.70L48.63-45.70Q48.63-42.77 48.63-41.02L48.63-41.02Q51.56-42.19 49.22-41.02L49.22-41.02Q51.56-42.19 54.49-41.60L54.49-41.60Q56.25-41.02 55.66-39.26L55.66-39.26Q53.91-39.26 52.15-38.67L52.15-38.67Q50.39-38.67 49.80-38.67L49.80-38.67Q48.05-38.09 47.46-36.33L47.46-36.33Q47.46-35.74 47.46-35.74L47.46-35.74Q47.46-31.05 47.46-28.13L47.46-28.13Q50.98-29.88 54.49-29.88L54.49-29.88Q55.08-29.30 55.66-28.71L55.66-28.71Q55.66-28.13 55.08-28.13L55.08-28.13Q53.91-27.54 52.73-26.95L52.73-26.95Q41.60-22.27 40.43-22.85L40.43-22.85Q40.43-19.92 38.67-20.51L38.67-20.51Q36.33-20.51 35.16-22.85L35.16-22.85Q34.57-22.85 32.23-23.44L32.23-23.44Q29.30-23.44 30.47-26.95L30.47-26.95Q31.64-28.71 31.05-30.47L31.05-30.47Q28.71-32.81 28.71-38.67L28.71-38.67Q28.13-44.53 27.54-46.88L27.54-46.88Q25.78-49.80 32.81-54.49L32.81-54.49Q36.33-57.42 42.77-61.52L42.77-61.52Q46.29-63.87 50.98-67.38L50.98-67.38Q52.73-68.55 50.39-68.55L50.39-68.55Q49.22-68.55 47.46-67.97L47.46-67.97Q46.29-67.97 46.29-67.97L46.29-67.97Q45.12-67.97 45.12-68.55L45.12-68.55Q45.12-69.14 46.29-69.73L46.29-69.73Q53.32-72.07 56.84-73.83L56.84-73.83Q59.18-76.17 61.52-75L61.52-75Q62.11-74.41 63.87-73.83L63.87-73.83Q65.63-72.66 66.80-72.66L66.80-72.66Q67.97-71.48 67.38-70.31L67.38-70.31Q67.38-69.73 66.21-69.73L66.21-69.73Q60.35-69.73 51.56-64.45L51.56-64.45Q47.46-61.52 43.36-59.18L43.36-59.18Q37.50-55.66 33.40-53.32L33.40-53.32Q28.71-50.39 29.30-47.46L29.30-47.46Q29.30-31.64 39.84-24.02ZM100.78-84.96L100.78-84.96Q101.95-82.62 104.30-83.20L104.30-83.20Q107.81-80.86 108.98-80.27L108.98-80.27Q110.16-79.69 109.57-79.10L109.57-79.10Q108.40-77.34 106.05-78.52L106.05-78.52Q104.88-79.69 97.85-76.76L97.85-76.76Q82.03-69.14 72.66-67.97L72.66-67.97Q71.48-67.38 72.66-68.55L72.66-68.55Q83.79-72.66 94.92-79.69L94.92-79.69Q99.61-82.03 97.27-83.79L97.27-83.79Q97.85-84.96 100.78-84.96ZM45.12-79.69L45.12-79.69Q49.22-76.17 45.70-73.83L45.70-73.83Q32.23-59.77 25.20-55.66L25.20-55.66Q22.85-54.49 22.85-55.08L22.85-55.08Q22.85-55.66 24.61-57.42L24.61-57.42Q33.40-63.28 41.02-73.24L41.02-73.24Q43.36-75.59 43.95-79.69L43.95-79.69Q43.36-81.45 45.12-79.69ZM22.85-5.27L22.85-5.27Q24.61 0 27.54 0L27.54 0Q28.71 0 28.71 0L28.71 0Q29.30 0 29.30 1.17L29.30 1.17Q28.71 2.34 30.47 4.69L30.47 4.69Q31.05 5.27 31.05 6.45L31.05 6.45Q30.47 7.03 29.30 7.62L29.30 7.62Q26.95 7.62 25.20 5.27L25.20 5.27Q25.20 5.27 24.61 4.69L24.61 4.69Q21.09 0 21.68-5.27L21.68-5.27Q21.68-7.62 22.85-5.27ZM46.88-15.82L46.88-15.82Q45.70-16.99 46.88-16.41L46.88-16.41Q53.91-11.72 54.49-8.20L54.49-8.20Q55.08-5.86 53.32-4.69L53.32-4.69Q49.80-5.27 46.88-15.82ZM35.74-11.72L35.74-11.72Q38.67-11.13 42.19-3.52L42.19-3.52Q42.77-0.59 41.60-0.59L41.60-0.59Q38.09-0.59 35.74-10.55L35.74-10.55Q34.57-12.89 35.74-11.72ZM59.18-19.34L59.18-19.34Q63.87-14.65 67.97-11.13L67.97-11.13Q68.55-8.20 66.80-7.62L66.80-7.62Q64.45-8.20 62.70-11.72L62.70-11.72Q61.52-14.65 58.59-18.16L58.59-18.16Q57.42-20.51 59.18-19.34ZM223.24-126.56L223.24-126.56Q226.76-123.63 228.52-121.88L228.52-121.88Q229.69-120.70 229.10-117.77L229.10-117.77Q227.34-113.09 227.34-108.40L227.34-108.40Q229.10-107.81 232.03-108.98L232.03-108.98Q233.20-108.40 234.96-110.16L234.96-110.16Q235.55-110.16 236.13-110.74L236.13-110.74Q237.30-112.50 247.27-110.74L247.27-110.74Q249.02-110.16 249.02-108.98L249.02-108.98Q249.02-107.23 247.27-107.23L247.27-107.23Q239.65-106.05 226.76-101.95L226.76-101.95Q226.76-100.20 226.17-96.09L226.17-96.09Q226.17-91.99 226.17-90.23L226.17-90.23Q244.34-93.16 249.61-93.75L249.61-93.75Q254.88-94.34 257.81-93.16L257.81-93.16Q261.33-93.16 273.63-79.69L273.63-79.69Q274.80-77.93 274.22-77.34L274.22-77.34Q274.22-76.76 272.46-76.76L272.46-76.76Q265.43-76.76 262.50-71.48L262.50-71.48Q250.20-51.56 236.72-49.80L236.72-49.80Q233.20-49.22 224.41-55.66L224.41-55.66Q224.41-53.32 225-53.32L225-53.32Q228.52-50.39 229.10-49.22L229.10-49.22Q229.10-47.46 226.76-45.70L226.76-45.70Q240.23-24.61 257.81-15.23L257.81-15.23Q263.09-12.30 268.36-12.30L268.36-12.30Q282.42-12.89 288.87-9.38L288.87-9.38Q290.04-8.20 290.04-7.62L290.04-7.62Q289.45-6.45 288.28-6.45L288.28-6.45Q282.42-5.86 277.15-5.86L277.15-5.86Q273.63-5.86 270.70-6.45L270.70-6.45Q263.09-5.86 259.57-9.96L259.57-9.96Q232.03-31.64 225-42.19L225-42.19Q224.41-7.03 224.41 0L224.41 0Q225 9.96 227.34 16.41L227.34 16.41Q227.34 18.16 226.17 19.34L226.17 19.34Q224.41 20.51 223.24 19.34L223.24 19.34Q213.87 9.96 206.25 0L206.25 0Q203.91-1.76 205.08-1.76L205.08-1.76Q205.66-1.76 208.01 0L208.01 0Q210.35 0.59 212.70 2.93L212.70 2.93Q216.80 5.86 218.55 7.03L218.55 7.03Q220.31 8.20 220.90 8.20L220.90 8.20Q221.48 7.62 221.48 5.86L221.48 5.86Q223.24-13.48 220.90-40.43L220.90-40.43Q191.60-12.30 172.85-2.34L172.85-2.34Q170.51-1.17 169.92-1.76L169.92-1.76Q169.92-2.93 172.27-4.10L172.27-4.10Q200.39-23.44 220.31-48.63L220.31-48.63Q216.80-51.56 218.55-54.49L218.55-54.49Q211.52-53.32 206.25-50.39L206.25-50.39Q203.91-49.22 202.15-50.39L202.15-50.39Q200.98-51.56 202.15-53.91L202.15-53.91Q203.32-56.25 198.63-57.42L198.63-57.42Q193.36-58.01 195.70-62.70L195.70-62.70Q197.46-64.45 193.36-68.55L193.36-68.55Q186.91-73.83 188.67-76.76L188.67-76.76Q187.50-77.34 193.95-83.20L193.95-83.20Q196.88-85.55 195.70-84.38L195.70-84.38Q208.01-94.34 211.52-96.09L211.52-96.09Q214.45-96.68 212.11-94.92L212.11-94.92Q210.35-93.16 209.18-91.99L209.18-91.99Q198.63-83.79 193.95-78.52L193.95-78.52Q191.60-76.76 194.53-73.24L194.53-73.24Q200.39-65.04 206.84-60.35L206.84-60.35Q207.42-59.18 208.59-58.59L208.59-58.59Q209.77-57.42 210.35-56.84L210.35-56.84Q210.35-56.84 211.52-56.84L211.52-56.84Q214.45-57.42 220.31-59.18L220.31-59.18Q220.31-65.04 220.31-70.31L220.31-70.31Q206.25-63.87 200.98-67.38L200.98-67.38Q198.63-67.38 199.22-68.55L199.22-68.55Q199.22-69.14 201.56-69.73L201.56-69.73Q210.94-70.31 220.31-75L220.31-75Q220.31-79.10 220.31-84.96L220.31-84.96Q215.04-83.20 209.18-80.86L209.18-80.86Q205.08-78.52 198.05-79.69L198.05-79.69Q195.70-79.69 198.05-80.86L198.05-80.86Q201.56-82.03 204.49-83.20L204.49-83.20Q212.70-87.30 220.90-89.65L220.90-89.65Q220.90-95.51 220.90-99.61L220.90-99.61Q219.73-99.02 217.97-97.85L217.97-97.85Q216.80-97.27 215.63-96.68L215.63-96.68Q213.87-95.51 213.28-96.09L213.28-96.09Q212.70-96.68 214.45-98.44L214.45-98.44Q215.04-98.44 217.97-101.95L217.97-101.95Q206.84-98.44 200.98-100.78L200.98-100.78Q198.63-101.37 200.98-101.95L200.98-101.95Q212.70-103.71 221.48-106.64L221.48-106.64Q221.48-109.57 221.48-111.91L221.48-111.91Q221.48-121.29 220.90-125.98L220.90-125.98Q220.90-126.56 221.48-127.15L221.48-127.15Q222.07-127.15 223.24-126.56ZM251.37-91.99L251.37-91.99Q237.30-89.65 226.17-86.13L226.17-86.13Q225-79.69 225.59-76.17L225.59-76.17Q234.38-78.52 234.38-79.10L234.38-79.10Q234.96-80.86 239.06-81.45L239.06-81.45Q240.82-80.86 243.16-80.86L243.16-80.86Q245.51-80.86 247.27-80.86L247.27-80.86Q247.85-80.27 247.85-79.69L247.85-79.69Q247.85-78.52 247.27-78.52L247.27-78.52Q243.75-76.76 227.93-72.07L227.93-72.07Q225.59-71.48 225-71.48L225-71.48Q225-69.14 224.41-65.04L224.41-65.04Q223.83-61.52 224.41-60.35L224.41-60.35Q231.45-60.94 237.89-63.28L237.89-63.28Q244.34-65.63 246.09-63.28L246.09-63.28Q247.27-60.94 244.92-59.77L244.92-59.77Q238.48-59.77 228.52-57.42L228.52-57.42Q237.89-52.73 246.09-59.18L246.09-59.18Q257.23-68.55 259.57-86.13L259.57-86.13Q257.81-91.99 251.37-91.99ZM385.55-120.70L385.55-120.70Q386.72-119.53 388.48-118.36L388.48-118.36Q390.23-117.19 391.99-116.60L391.99-116.60Q392.58-115.43 392.58-114.26L392.58-114.26Q392.58-103.13 391.99-97.27L391.99-97.27Q391.99-90.23 391.41-84.96L391.41-84.96Q400.78-87.30 410.16-87.30L410.16-87.30Q416.60-87.30 421.29-82.03L421.29-82.03Q423.05-79.69 424.80-76.76L424.80-76.76Q425.98-75 426.56-75L426.56-75Q425.39-73.24 424.22-72.66L424.22-72.66Q421.29-73.24 414.84-72.07L414.84-72.07Q407.81-70.31 399.02-69.73L399.02-69.73Q393.16-69.14 390.23-69.14L390.23-69.14Q389.65-68.55 389.65-67.38L389.65-67.38Q388.48-59.77 387.89-56.84L387.89-56.84Q399.02-61.52 403.13-59.77L403.13-59.77Q404.30-58.59 406.05-57.42L406.05-57.42Q407.23-57.42 407.81-57.42L407.81-57.42Q408.40-56.25 407.81-55.66L407.81-55.66Q404.30-55.08 404.30-51.56L404.30-51.56Q399.02-32.81 392.58-21.68L392.58-21.68Q393.16-20.51 393.75-19.34L393.75-19.34Q399.02-13.48 403.71-9.96L403.71-9.96Q412.50-0.59 421.88-2.34L421.88-2.34Q425.98-1.76 434.77-0.59L434.77-0.59Q442.97 0 448.24 0.59L448.24 0.59Q450 1.76 447.66 1.17L447.66 1.17Q435.35 0.59 430.08 1.76L430.08 1.76Q421.29 1.76 418.36 1.17L418.36 1.17Q416.60 0.59 417.19 0.59L417.19 0.59Q413.67 0.59 410.74-1.17L410.74-1.17Q401.37-8.79 391.99-20.51L391.99-20.51Q381.45-7.62 366.80-3.52L366.80-3.52Q363.87-2.93 366.21-4.10L366.21-4.10Q380.86-10.55 390.23-22.27L390.23-22.27Q389.06-24.02 384.96-29.30L384.96-29.30Q384.38-30.47 384.38-31.05L384.38-31.05Q376.76-43.36 371.48-42.77L371.48-42.77Q369.73-42.77 371.48-43.36L371.48-43.36Q373.83-43.95 377.34-45.12L377.34-45.12Q377.34-45.70 379.69-41.60L379.69-41.60Q387.89-28.13 391.41-24.02L391.41-24.02Q400.20-42.77 400.78-54.49L400.78-54.49Q400.20-58.59 396.68-57.42L396.68-57.42Q385.55-52.73 384.96-51.56L384.96-51.56Q383.79-49.22 382.62-50.39L382.62-50.39Q381.45-50.39 382.62-53.32L382.62-53.32Q382.62-53.91 383.79-54.49L383.79-54.49Q383.79-53.91 385.55-55.08L385.55-55.08Q386.13-55.66 386.72-56.25L386.72-56.25Q386.13-57.42 386.13-59.77L386.13-59.77Q385.55-61.52 385.55-63.28L385.55-63.28Q384.38-69.14 386.72-70.31L386.72-70.31Q386.72-70.31 387.30-77.93L387.30-77.93Q387.30-79.69 387.89-82.03L387.89-82.03Q383.20-80.27 379.10-78.52L379.10-78.52Q370.90-75.59 367.38-73.83L367.38-73.83Q363.28-71.48 359.18-72.66L359.18-72.66Q357.42-73.24 359.77-73.83L359.77-73.83Q361.52-72.66 370.31-76.76L370.31-76.76Q375.59-78.52 380.27-80.86L380.27-80.86Q385.55-82.62 387.89-83.79L387.89-83.79Q387.89-86.72 387.89-90.82L387.89-90.82Q387.89-103.13 387.89-108.98L387.89-108.98Q387.89-116.60 384.96-120.70L384.96-120.70Q383.79-120.70 385.55-120.70ZM391.41-82.62L391.41-82.62Q391.41-76.76 390.23-70.90L390.23-70.90Q409.57-72.07 415.43-76.76L415.43-76.76Q420.12-80.27 418.36-82.03L418.36-82.03Q415.43-85.55 410.16-85.55L410.16-85.55Q401.95-85.55 391.41-82.62ZM363.87-66.80L363.87-66.80Q368.55-67.38 369.14-55.66L369.14-55.66Q368.55-22.27 355.08-12.30L355.08-12.30Q352.15-11.13 354.49-12.89L354.49-12.89Q368.55-28.13 366.21-55.66L366.21-55.66Q365.63-64.45 363.87-66.21L363.87-66.21Q362.70-67.38 363.87-66.80ZM338.67-104.30L338.67-104.30Q340.43-102.54 343.95-101.37L343.95-101.37Q344.53-100.20 344.53-99.02L344.53-99.02Q342.19-94.34 342.19-71.48L342.19-71.48Q343.95-72.66 346.88-73.83L346.88-73.83Q347.46-74.41 348.05-74.41L348.05-74.41Q350.39-74.41 351.56-74.41L351.56-74.41Q352.15-74.41 352.15-73.24L352.15-73.24Q351.56-72.07 350.39-71.48L350.39-71.48Q349.80-71.48 349.80-71.48L349.80-71.48Q345.70-69.73 341.60-66.80L341.60-66.80Q340.43-54.49 341.02-33.40L341.02-33.40Q352.15-45.12 359.77-53.91L359.77-53.91Q360.94-55.08 360.35-53.32L360.35-53.32Q345.12-28.71 324.02-15.82L324.02-15.82Q322.85-15.23 321.68-14.06L321.68-14.06Q321.09-13.48 320.51-13.48L320.51-13.48Q319.34-12.30 319.34-13.48L319.34-13.48Q316.99-14.65 316.99-15.82L316.99-15.82Q316.41-16.41 317.58-16.41L317.58-16.41Q319.34-15.82 322.85-18.75L322.85-18.75Q331.05-24.02 338.09-30.47L338.09-30.47Q337.50-58.01 338.67-65.04L338.67-65.04Q332.23-60.94 325.20-59.18L325.20-59.18Q321.68-56.84 313.48-58.01L313.48-58.01Q311.13-58.01 313.48-59.18L313.48-59.18Q318.16-59.77 322.27-61.52L322.27-61.52Q329.30-64.45 338.67-70.31L338.67-70.31Q338.67-72.66 338.67-77.93L338.67-77.93Q339.26-83.20 339.26-86.72L339.26-86.72Q339.84-96.09 338.09-103.13L338.09-103.13Q337.50-103.71 338.67-104.30Z"/>
    </svg>
        