<svg width="283" height="283" version="1.1" xmlns="http://www.w3.org/2000/svg" xmlns:xlink="http://www.w3.org/1999/xlink"><path d="M255.27 236.63L255.27 236.63Q251.87 238.33 251.30 238.33L251.30 238.33L212.82 243.14Q201.50 244.56 165.27 202.96L165.27 202.96L164.14 201.83Q140.37 225.88 118.29 225.88L118.29 225.88Q112.63 225.88 110.37 223.90L110.37 223.90L110.37 223.05Q141.50 211.45 156.22 191.64L156.22 191.64Q139.80 171.26 136.41 167.87L136.41 167.87Q129.61 160.79 122.26 156.26L122.26 156.26Q122.26 154.00 125.09 153.43L125.09 153.43Q135.84 153.43 147.16 166.45L147.16 166.45Q157.35 178.62 160.18 180.88L160.18 180.88L161.31 182.02Q172.63 159.94 172.63 142.40L172.63 142.40Q168.10 137.30 157.35 141.26L157.35 141.26L149.99 144.09Q132.44 146.64 126.78 141.26L126.78 141.26Q125.65 140.41 125.09 139.28L125.09 139.28Q127.35 138.72 142.63 136.74L142.63 136.74Q144.90 136.45 146.59 136.17L146.59 136.17Q148.29 118.34 148.29 91.74L148.29 91.74Q143.20 92.59 122.26 99.66L122.26 99.66Q119.43 100.51 117.16 101.08L117.16 101.08Q114.33 146.36 112.63 157.96L112.63 157.96Q105.28 202.67 76.41 227.01L76.41 227.01L72.45 230.41Q64.52 236.92 57.17 235.22L57.17 235.22L57.17 233.52Q101.88 197.30 101.88 130.79L101.88 130.79Q101.88 105.89 97.35 95.42L97.35 95.42Q96.22 92.02 93.96 89.19L93.96 89.19Q93.96 80.42 113.20 91.17L113.20 91.17L114.33 91.74L147.16 82.97L147.16 50.99Q147.16 43.91 146.03 38.25L146.03 38.25Q145.46 36.55 140.93 28.63L140.93 28.63Q138.10 22.97 139.80 19.29L139.80 19.29Q140.93 18.44 148.29 18.44L148.29 18.44L161.88 23.54Q166.97 26.37 168.10 30.61L168.10 30.61Q168.10 32.59 165.27 41.93L165.27 41.93Q164.71 43.91 164.14 45.33L164.14 45.33Q161.88 62.87 161.31 79.29L161.31 79.29Q164.71 79.00 187.35 73.34L187.35 73.34Q202.63 69.66 212.82 71.08L212.82 71.08Q229.80 81.27 233.76 85.23L233.76 85.23L234.89 86.36Q233.76 89.47 228.10 91.74L228.10 91.74Q207.72 100.79 196.40 109.85L196.40 109.85L192.44 110.13Q191.87 107.02 198.67 91.74L198.67 91.74Q200.93 85.80 200.93 83.81L200.93 83.81Q200.93 82.40 198.67 80.70L198.67 80.70Q179.99 82.40 161.31 88.06L161.31 88.06L158.48 133.06L181.12 127.68Q193.57 125.98 199.23 135.60L199.23 135.60Q198.67 138.15 193.57 143.53L193.57 143.53L191.87 145.51Q188.48 149.75 182.82 166.17L182.82 166.17Q181.69 170.98 179.99 174.09L179.99 174.09L171.50 191.92Q194.70 212.58 214.51 219.94L214.51 219.94L226.40 223.33Q246.21 229.56 253.00 232.67L253.00 232.67Q256.40 233.80 255.27 236.63ZM86.03 154.56L89.99 154.56Q88.86 160.79 78.11 168.43L78.11 168.43Q43.02 192.49 28.30 206.64L28.30 206.64Q23.21 206.64 10.19 200.98L10.19 200.98Q8.49 200.13 6.79 199.56L6.79 199.56Q5.09 197.86 5.09 193.05L5.09 193.05Q6.23 191.35 12.45 190.79L12.45 190.79Q14.15 190.51 15.28 189.94L15.28 189.94L50.37 172.68L51.51 171.26L52.64 125.70L43.58 127.40Q35.66 128.53 28.30 126.83L28.30 126.83Q23.77 125.70 19.81 123.43L19.81 123.43L19.24 122.59Q19.81 121.17 48.11 113.53L48.11 113.53Q51.51 112.68 52.64 112.40L52.64 112.40L53.20 73.63Q53.20 64.29 51.51 58.63L51.51 58.63Q50.37 53.53 44.15 43.63L44.15 43.63Q43.58 34.29 58.30 40.23L58.30 40.23Q68.49 44.48 71.32 49.01L71.32 49.01Q66.22 79.29 65.09 107.02L65.09 107.02Q73.01 105.32 79.81 106.74L79.81 106.74Q84.90 107.87 87.73 110.70L87.73 110.70L88.30 112.11Q88.30 115.51 84.33 115.79L84.33 115.79L65.09 122.30L64.52 122.59L62.26 166.17L63.96 166.17L86.03 154.56Z" stroke="#000" fill="black" /></svg>