<svg width="283" height="283" version="1.1" xmlns="http://www.w3.org/2000/svg" xmlns:xlink="http://www.w3.org/1999/xlink"><path d="M244.80 243.10L244.80 243.10L244.23 244.51Q213.38 250.74 191.87 246.21L191.87 246.21Q182.82 244.23 178.01 240.27L178.01 240.27Q152.54 217.06 123.95 180.84L123.95 180.84L123.95 253.00Q123.95 270.83 116.60 276.77L116.60 276.77Q116.31 277.06 115.75 277.34L115.75 277.34Q110.09 277.06 106.69 265.74L106.69 265.74Q106.13 263.76 106.13 263.19L106.13 263.19Q101.60 251.59 106.97 226.12L106.97 226.12Q109.52 212.53 110.09 207.44L110.09 207.44Q110.94 198.10 110.94 179.71L110.94 179.71Q90.28 215.36 56.60 236.59L56.60 236.59Q37.92 248.76 18.68 253.00L18.68 253.00Q15.85 251.87 15.57 251.30L15.57 251.30Q91.41 202.91 102.73 168.67L102.73 168.67L82.92 170.65L82.64 170.65Q81.79 175.18 80.09 176.59L80.09 176.59Q71.88 172.91 67.64 158.48L67.64 158.48Q65.37 151.41 65.09 150.56L65.09 150.56Q56.60 126.78 47.83 112.63L47.83 112.63Q47.83 110.09 49.24 109.24L49.24 109.24Q69.05 110.65 108.67 103.58L108.67 103.58Q110.37 103.30 111.50 103.01L111.50 103.01L111.50 82.35L88.58 83.77Q77.83 83.20 71.88 76.98L71.88 76.98Q72.17 74.15 103.01 71.03L103.01 71.03Q109.24 70.18 110.94 69.90L110.94 69.90Q110.37 49.53 100.47 35.94L100.47 35.94L100.18 31.98Q102.73 29.72 109.24 29.72L109.24 29.72Q125.94 39.62 127.07 40.47L127.07 40.47Q129.05 42.17 130.75 43.58L130.75 43.58Q130.75 45.28 127.35 58.58L127.35 58.58Q126.22 62.83 126.22 65.94L126.22 65.94L150.84 60.56Q160.74 59.15 167.25 64.24L167.25 64.24Q168.95 67.35 168.95 68.49L168.95 68.49Q162.16 74.43 129.61 78.67L129.61 78.67L124.80 79.24L123.67 100.75L162.73 94.81Q173.76 93.67 177.16 94.81L177.16 94.81Q185.08 97.35 195.84 107.54L195.84 107.54L199.23 110.94Q199.23 115.18 191.59 121.41L191.59 121.41Q188.20 124.52 187.06 126.22L187.06 126.22Q183.38 131.31 177.44 149.42L177.44 149.42Q173.20 161.31 168.95 166.69L168.95 166.69Q168.67 166.97 168.10 167.54L168.10 167.54Q163.29 173.20 159.33 169.23L159.33 169.23Q157.07 167.25 156.78 163.29L156.78 163.29Q141.22 163.29 123.95 165.56L123.95 165.56L123.67 170.65L163.29 202.63Q176.31 212.82 188.20 219.04L188.20 219.04Q190.46 220.46 212.25 228.66L212.25 228.66Q213.10 228.95 213.38 229.23L213.38 229.23L238.57 239.14Q244.23 241.97 244.80 243.10ZM166.40 106.97L166.40 106.97Q149.71 106.97 123.95 110.09L123.95 110.09L123.95 128.48Q130.46 126.22 140.37 127.92L140.37 127.92Q149.99 129.33 148.86 134.14L148.86 134.14Q148.58 134.71 148.29 135.56L148.29 135.56Q145.46 136.41 129.61 138.39L129.61 138.39Q126.50 138.95 123.95 139.52L123.95 139.52L124.24 156.22L143.48 152.82Q152.54 152.25 158.48 155.37L158.48 155.37Q163.86 143.20 167.25 123.39L167.25 123.39Q170.08 108.39 166.40 106.97ZM110.94 158.48L111.50 141.22L97.07 142.92Q94.52 142.92 92.54 142.63L92.54 142.63Q88.58 139.52 88.58 137.26L88.58 137.26Q97.35 134.14 111.50 131.60L111.50 131.60L111.50 112.35Q98.20 113.77 71.03 120.56L71.03 120.56L81.79 162.44Q109.80 158.48 110.94 158.48L110.94 158.48Z" stroke="#000" fill="black" /></svg>