<svg width="283" height="283" version="1.1" xmlns="http://www.w3.org/2000/svg" xmlns:xlink="http://www.w3.org/1999/xlink"><path d="M212.53 57.73L212.53 57.73L210.55 58.86Q192.72 56.03 157.35 61.41L157.35 61.41L150.84 62.54Q142.92 76.98 137.26 83.20L137.26 83.20Q134.99 83.20 134.14 81.79L134.14 81.79Q133.58 80.09 137.82 65.37L137.82 65.37Q138.95 61.69 139.52 60.28L139.52 60.28L135.27 55.75Q136.12 54.62 141.22 54.05L141.22 54.05Q145.18 37.07 142.07 30.00L142.07 30.00Q142.07 28.30 145.46 26.32L145.46 26.32Q152.54 26.32 159.33 32.26L159.33 32.26Q164.42 36.22 163.01 40.47L163.01 40.47Q159.33 44.43 155.65 51.51L155.65 51.51L187.35 46.41Q202.35 45.28 209.70 50.66L209.70 50.66Q213.67 53.49 212.53 57.73ZM111.79 58.02L112.35 60.56Q109.80 62.83 101.31 64.52L101.31 64.52Q97.35 65.37 95.09 66.79L95.09 66.79L95.94 86.32Q91.41 88.86 86.88 77.54L86.88 77.54Q84.90 72.45 84.62 69.90L84.62 69.90Q80.66 69.05 50.66 76.98L50.66 76.98Q47.26 77.83 45.28 78.39L45.28 78.39Q35.09 76.69 29.15 69.34L29.15 69.34L29.15 66.51Q38.21 66.51 71.32 62.26L71.32 62.26Q76.41 61.69 80.66 61.13L80.66 61.13Q80.37 56.03 73.30 47.26L73.30 47.26Q71.32 45.00 70.18 43.58L70.18 43.58Q70.18 40.47 72.73 39.05L72.73 39.05L82.07 39.05L90.56 42.45Q92.54 44.71 93.39 53.49L93.39 53.49Q93.67 56.88 94.52 58.86L94.52 58.86L107.54 57.17Q109.80 57.17 111.79 58.02L111.79 58.02ZM248.47 229.23L248.47 229.23L247.63 230.36Q237.44 231.78 219.89 230.93L219.89 230.93Q211.12 230.65 207.44 229.80L207.44 229.80Q200.65 228.10 165.56 173.76L165.56 173.76Q165.56 211.40 166.12 230.36L166.12 230.36L167.25 254.13Q166.97 255.83 166.97 257.25L166.97 257.25Q166.40 264.89 162.16 267.44L162.16 267.44Q155.65 263.76 151.12 252.72L151.12 252.72Q147.44 242.81 150.84 238.29L150.84 238.29Q155.93 204.04 154.80 179.14L154.80 179.14Q154.52 177.16 154.52 175.18L154.52 175.18Q133.58 216.50 99.05 242.25L99.05 242.25Q97.64 242.81 97.35 241.40L97.35 241.40Q97.07 240.83 97.35 239.98L97.35 239.98Q131.88 196.69 145.18 170.08L145.18 170.08Q148.86 163.01 151.69 155.93L151.69 155.93L129.90 159.33Q123.67 159.61 119.14 156.78L119.14 156.78Q117.16 153.95 119.14 153.10L119.14 153.10L154.52 145.75Q153.95 125.09 151.12 117.16L151.12 117.16Q138.10 121.69 123.67 125.37L123.67 125.37L123.11 123.11L149.14 107.82Q165.56 96.79 165.56 88.86L165.56 88.86Q169.23 83.77 183.95 91.69L183.95 91.69Q190.74 95.37 192.72 98.20L192.72 98.20Q192.72 101.60 186.21 103.01L186.21 103.01Q185.37 103.30 184.80 103.58L184.80 103.58Q166.40 110.09 159.61 114.05L159.61 114.05Q168.39 117.73 166.69 128.48L166.69 128.48Q164.99 140.37 164.99 142.07L164.99 142.07L165.27 143.20L194.70 135.84Q210.27 133.01 221.02 142.63L221.02 142.63Q221.02 146.31 217.06 147.16L217.06 147.16Q216.78 147.16 202.06 147.73L202.06 147.73Q179.14 148.86 165.27 153.10L165.27 153.10L165.27 163.29Q189.89 194.42 226.12 215.65L226.12 215.65Q234.89 220.74 245.93 226.40L245.93 226.40Q248.19 227.53 248.47 229.23ZM117.16 140.37L117.16 140.37Q117.16 142.92 112.92 149.42L112.92 149.42L111.50 152.25Q110.09 154.80 106.13 174.33L106.13 174.33Q103.01 189.04 98.20 193.57L98.20 193.57Q94.81 193.57 89.43 187.91L89.43 187.91L51.79 193.29L48.96 194.14L46.98 198.95L45.00 199.80Q38.77 194.99 36.22 180.55L36.22 180.55Q35.09 172.91 33.96 169.80L33.96 169.80Q27.45 151.12 24.90 146.31L24.90 146.31Q24.62 142.07 30.00 142.92L30.00 142.92Q29.72 142.63 38.77 145.18L38.77 145.18L69.34 137.26Q76.69 127.35 86.88 108.39L86.88 108.39Q84.90 106.69 82.35 107.54L82.35 107.54L80.37 108.39Q69.62 108.39 64.81 106.97L64.81 106.97Q42.73 127.92 34.53 131.88L34.53 131.88Q29.72 134.43 27.45 133.01L27.45 133.01L27.45 132.16Q50.09 111.22 59.15 91.41L59.15 91.41L59.71 84.05Q60.00 82.92 61.98 82.35L61.98 82.35Q69.05 83.49 75.00 93.67L75.00 93.67Q75.00 96.22 70.75 99.33L70.75 99.33Q68.49 101.31 67.92 103.01L67.92 103.01Q70.75 103.01 86.03 99.05L86.03 99.05Q101.88 94.81 107.26 103.01L107.26 103.01L109.52 108.39Q91.41 118.86 79.81 134.14L79.81 134.14Q82.64 134.14 94.24 131.03L94.24 131.03Q98.48 129.90 101.60 129.90L101.60 129.90Q112.92 135.56 117.16 140.37ZM97.64 143.48L97.64 143.48L94.52 140.37Q82.35 140.37 69.90 144.90L69.90 144.90Q74.15 148.29 74.15 158.48L74.15 158.48Q78.11 156.50 84.05 157.91L84.05 157.91Q89.71 159.33 89.71 163.29L89.71 163.29Q87.16 164.71 75.00 167.25L75.00 167.25Q74.15 167.54 73.30 167.54L73.30 167.54Q72.45 181.69 72.45 181.97L72.45 181.97Q77.83 179.42 86.32 180.55L86.32 180.55Q87.73 180.55 89.15 180.84L89.15 180.84L90.28 179.99Q95.37 168.67 97.64 143.48ZM48.39 187.91L63.11 184.52L62.26 169.52L51.51 170.37Q49.24 168.10 49.24 167.25L49.24 167.25Q52.36 165.56 62.26 162.44L62.26 162.44Q62.26 153.10 61.13 146.59L61.13 146.59Q45.56 150.84 42.45 152.25L42.45 152.25L48.39 187.91ZM100.75 221.02L100.75 221.02Q95.37 219.33 90.84 211.12L90.84 211.12Q88.30 206.31 87.16 204.61L87.16 204.61Q87.16 201.21 88.01 200.36L88.01 200.36Q94.81 201.50 101.03 208.57L101.03 208.57Q107.82 216.50 100.75 221.02ZM77.26 225.27L73.58 227.25Q71.03 226.68 67.92 220.46L67.92 220.46Q67.35 219.33 66.79 218.76L66.79 218.76L63.11 206.59Q63.11 205.74 63.11 204.61L63.11 204.61L66.79 205.18Q81.22 216.50 78.67 223.00L78.67 223.00L77.26 225.27ZM55.47 234.61L55.47 234.61Q52.07 239.14 48.96 237.72L48.96 237.72Q43.87 230.08 42.73 216.21L42.73 216.21Q42.73 213.95 42.73 212.25L42.73 212.25Q43.58 205.74 48.96 213.95L48.96 213.95Q56.03 224.42 55.75 232.63L55.75 232.63Q55.75 233.76 55.47 234.61ZM23.49 209.14L23.49 209.14Q29.15 209.14 29.72 224.14L29.72 224.14Q30.56 242.53 23.21 251.02L23.21 251.02Q21.51 253.29 19.24 254.13L19.24 254.13Q14.15 256.12 12.17 248.19L12.17 248.19Q11.89 246.49 11.89 245.08L11.89 245.08Q11.89 239.42 22.64 211.12L22.64 211.12Q23.21 209.70 23.49 209.14Z" stroke="#000" fill="black" /></svg>